<svg width="275" height="50" viewBox="0 0 275 50" fill="none" xmlns="http://www.w3.org/2000/svg">
<path d="M80.3898 32.7207C79.9008 32.7207 77.0012 35.928 73.2987 36.2001C70.6898 36.4091 69.2937 34.5235 69.2937 33.2954C77.3285 32.1529 80.6146 28.9963 80.6146 24.9812C80.6146 22.2849 78.3087 19.4546 74.5167 19.4546C66.1969 19.4546 63.9823 27.5039 63.7192 33.1078C63.5265 35.5646 62.1215 35.9364 61.0235 35.8728C59.9255 35.8063 59.1187 34.8283 59.3159 33.0892L60.9435 22.0207C60.9649 21.8314 61.3919 19.5937 59.8021 19.5255C58.1267 19.4529 55.929 20.2331 55.5538 22.6252C55.1847 24.9688 55.0293 26.3062 54.7335 28.2093C54.4974 29.8064 54.2005 31.4255 54.0676 32.9568C53.7662 34.4148 53.253 35.1235 51.7223 35.1286C49.7804 34.9291 49.8243 33.2227 50.0288 31.7822L51.3792 22.0455C51.3989 21.8551 51.8265 19.5943 50.2367 19.5261C48.5607 19.4546 46.3635 20.2573 45.9872 22.6494C45.8948 23.2432 45.8143 23.7699 45.7433 24.2601L45.7427 24.2449C45.3455 27.0318 44.0408 28.2786 42.5529 27.9451C41.0656 27.6127 41.8183 23.4669 41.8239 23.4156C42.336 19.9498 41.1051 18.7306 38.1034 20.0196C36.5226 20.6985 34.8742 22.4517 33.7937 23.7637L34.0489 22.0207C34.0692 21.8303 34.4951 19.5937 32.9069 19.525C31.2309 19.4523 29.0327 20.2348 28.6575 22.6257C28.6439 22.7136 28.6299 22.8015 28.6169 22.8866V22.881C28.6169 22.881 28.4338 23.9035 28.1639 24.8167C28.0507 25.1863 27.9358 25.5496 27.8552 25.7851C27.5285 26.7473 27.1702 27.6983 26.7674 28.6205C26.3634 29.5433 25.9217 30.4385 25.435 31.2886C25.1911 31.7129 24.937 32.1269 24.6649 32.5207C24.3956 32.9134 24.1116 33.292 23.8114 33.6401C23.2148 34.3421 22.5545 34.9353 21.892 35.3466C21.7771 35.4159 21.6616 35.479 21.5483 35.537C18.3214 36.9404 17.7321 33.821 17.6605 33.3551C17.6273 33.1258 17.6138 32.8864 17.6019 32.6419C17.5794 32.2419 17.5777 31.825 17.5901 31.394C17.6014 30.9681 17.6295 30.5258 17.6729 30.0814C17.7591 29.1918 17.9062 28.2786 18.0887 27.3614C18.2509 26.5378 18.4492 25.7124 18.6712 24.886C20.5714 25.0978 22.3353 25.2668 22.9691 25.313C24.4897 25.4217 25.355 24.6347 25.502 23.7733C25.6153 23.1001 25.5353 23.4691 25.8119 21.8787C26.2209 19.5222 25.7409 19.5222 23.8119 19.5222C23.8119 19.5222 22.4446 19.5222 20.5185 19.5222C20.5669 19.4038 20.612 19.2867 20.6605 19.1712C21.3788 17.4005 22.3055 15.8304 23.2339 14.0648C24.4288 11.7973 24.1173 11.2711 22.6576 10.0153C18.0921 6.64752 15.7969 12.657 15.2628 13.6068C14.833 14.5504 14.4719 15.4918 14.0482 16.6208C13.6893 17.5791 13.3615 18.5453 13.0651 19.5227H8.31933C6.86866 19.5227 7.0033 20.8494 7.0033 20.8494C7.0033 22.0922 9.96661 23.2139 11.9739 23.8037C11.8077 24.6178 11.664 25.4347 11.5446 26.2696C11.3886 27.3856 11.2826 28.5231 11.2432 29.6915C11.206 30.8594 11.2342 32.0599 11.4117 33.3134C11.5052 33.9427 11.6314 34.5843 11.8274 35.2407C11.9243 35.5674 12.0376 35.9009 12.1705 36.2361C12.3063 36.5697 12.4651 36.9082 12.6488 37.2434C13.0161 37.9155 13.5057 38.5899 14.1395 39.1803C14.7699 39.7707 15.5535 40.2546 16.3614 40.5386C16.7653 40.6817 17.1721 40.782 17.5704 40.8451C17.9687 40.9081 18.4498 40.9329 18.8233 40.9329C19.5557 40.9262 20.2892 40.8208 20.9957 40.6146C21.7004 40.4062 22.3635 40.0975 22.95 39.7217C23.5376 39.3409 24.0519 38.902 24.5009 38.4389C25.3984 37.5077 26.0384 36.479 26.5629 35.4559C26.6812 35.2266 26.791 34.9967 26.8958 34.7658C26.7144 36.8925 26.8051 38.7747 27.6011 39.7583C29.1166 41.6377 31.2489 41.0287 31.454 39.5375C31.6354 38.2333 32.0399 35.6187 32.3334 33.6818C32.6816 31.6672 33.0917 30.4746 33.8145 28.8256C34.6652 26.8865 37.0798 25.2893 37.0359 27.5372C36.9068 34.1359 41.8414 34.2694 44.692 31.3377C44.2847 34.2272 44.1585 36.9567 45.6875 38.8113C48.6779 42.4383 53.1656 40.6411 55.4873 39.0558C57.5644 41.8912 62.9834 41.3014 65.3344 38.4023C67.0301 40.7386 70.1805 40.9988 72.5269 40.9048C79.2546 40.5628 83.4219 32.7207 80.3898 32.7207ZM75.7623 25.3141C76.2192 27.3834 73.2801 29.1264 69.3427 29.7219C69.3546 28.7963 69.6881 26.3305 72.0131 25.117C73.6401 24.2916 75.5449 24.3305 75.7623 25.3141Z" fill="white"/>
<path d="M94.0819 19.538C96.5816 19.538 98.6694 20.4867 100.021 21.89L97.2773 25.6466C96.2942 24.8212 95.3917 24.4488 94.4503 24.4488C91.5434 24.4488 89.6989 26.7186 89.6989 30.2701C89.6989 33.8165 91.625 36.0852 94.2447 36.0852C95.7179 36.0852 96.9077 35.3832 97.8908 34.6024L100.305 38.4389C98.3421 40.173 95.7607 40.9995 93.5495 40.9995C87.8967 40.9995 83.5154 37.0778 83.5154 30.2701C83.5159 23.4596 88.4702 19.538 94.0819 19.538Z" fill="white"/>
<path d="M112.814 27.3377C112.69 25.5226 111.788 24.3665 109.619 24.3665C107.9 24.3665 106.179 25.0679 104.215 26.2234L102.085 22.2201C104.662 20.6523 107.57 19.5374 110.765 19.5374C115.967 19.5374 118.835 22.5086 118.835 28.7811V40.5019H113.918L113.467 38.3966H113.346C111.625 39.9245 109.7 40.9988 107.406 40.9988C103.721 40.9988 101.388 38.275 101.388 34.8086C101.389 30.5146 104.787 28.1642 112.814 27.3377ZM109.456 36.2942C110.848 36.2942 111.749 35.6311 112.814 34.5601V30.972C108.511 31.5467 107.119 32.7878 107.119 34.355C107.119 35.6739 108.021 36.2942 109.456 36.2942Z" fill="white"/>
<path d="M159.955 20.0326H164.868L165.28 23.6241H165.443C166.916 20.8585 169.128 19.538 171.216 19.538C172.365 19.538 173.062 19.7025 173.633 19.9503L172.65 25.1925C171.911 24.9874 171.301 24.8601 170.441 24.8601C168.923 24.8601 167.04 25.8528 165.975 28.6183V40.5026H159.955V20.0326ZM148.832 19.538C154.608 19.538 157.473 23.7891 157.473 29.3597C157.473 30.4335 157.353 31.4233 157.228 31.9191H145.065C145.6 35.0142 147.646 36.3759 150.351 36.3759C151.864 36.3759 153.256 35.9218 154.732 35.0142L156.736 38.688C154.648 40.1319 151.946 41 149.529 41C143.712 41 139.25 37.0367 139.25 30.2707C139.25 23.6241 143.961 19.538 148.832 19.538ZM152.353 28.1642C152.353 25.8094 151.373 24.1576 148.956 24.1576C147.071 24.1576 145.434 25.4404 145.026 28.1642H152.353ZM130.735 40.5026H136.753V11.5725H130.735V40.5026ZM121.673 40.5026H127.694V11.5725H121.673" fill="white"/>
<path d="M188.093 35.501C188.548 35.995 189.042 36.346 189.575 36.554C190.108 36.762 190.647 36.866 191.193 36.866C191.765 36.866 192.292 36.762 192.773 36.554C193.254 36.333 193.663 35.982 194.001 35.501C194.352 35.007 194.625 34.3635 194.82 33.5705C195.015 32.7645 195.113 31.7765 195.113 30.6065C195.113 29.5925 195.035 28.7345 194.879 28.0325C194.736 27.3175 194.515 26.739 194.216 26.297C193.93 25.842 193.566 25.517 193.124 25.322C192.695 25.114 192.201 25.01 191.642 25.01C190.901 25.01 190.257 25.1725 189.711 25.4975C189.165 25.8225 188.626 26.297 188.093 26.921V35.501ZM188.093 22.9235C188.873 22.1825 189.724 21.591 190.647 21.149C191.583 20.694 192.623 20.4665 193.767 20.4665C194.911 20.4665 195.951 20.7005 196.887 21.1685C197.823 21.6365 198.623 22.306 199.286 23.177C199.949 24.035 200.456 25.075 200.807 26.297C201.171 27.519 201.353 28.884 201.353 30.392C201.353 32.03 201.145 33.5185 200.729 34.8575C200.313 36.1965 199.721 37.347 198.954 38.309C198.2 39.258 197.297 39.999 196.244 40.532C195.191 41.052 194.027 41.312 192.753 41.312C192.142 41.312 191.596 41.2535 191.115 41.1365C190.634 41.0195 190.192 40.857 189.789 40.649C189.386 40.428 189.016 40.168 188.678 39.869C188.353 39.57 188.034 39.245 187.722 38.894L187.508 39.908C187.404 40.324 187.235 40.61 187.001 40.766C186.767 40.922 186.455 41 186.065 41H182.048V11.8085H188.093V22.9235ZM209.317 11.8085V41H203.272V11.8085H209.317ZM221.554 20.4665C223.088 20.4665 224.485 20.707 225.746 21.188C227.007 21.669 228.086 22.358 228.983 23.255C229.893 24.152 230.595 25.244 231.089 26.531C231.596 27.805 231.85 29.2415 231.85 30.8405C231.85 32.4525 231.596 33.9085 231.089 35.2085C230.595 36.4955 229.893 37.594 228.983 38.504C228.086 39.401 227.007 40.0965 225.746 40.5905C224.485 41.0715 223.088 41.312 221.554 41.312C220.007 41.312 218.596 41.0715 217.322 40.5905C216.061 40.0965 214.969 39.401 214.046 38.504C213.136 37.594 212.428 36.4955 211.921 35.2085C211.427 33.9085 211.18 32.4525 211.18 30.8405C211.18 29.2415 211.427 27.805 211.921 26.531C212.428 25.244 213.136 24.152 214.046 23.255C214.969 22.358 216.061 21.669 217.322 21.188C218.596 20.707 220.007 20.4665 221.554 20.4665ZM221.554 36.827C222.945 36.827 223.965 36.3395 224.615 35.3645C225.278 34.3765 225.61 32.8815 225.61 30.8795C225.61 28.8775 225.278 27.389 224.615 26.414C223.965 25.439 222.945 24.9515 221.554 24.9515C220.124 24.9515 219.077 25.439 218.414 26.414C217.751 27.389 217.42 28.8775 217.42 30.8795C217.42 32.8815 217.751 34.3765 218.414 35.3645C219.077 36.3395 220.124 36.827 221.554 36.827ZM241.236 29.8265C242.237 29.8265 242.959 29.5795 243.401 29.0855C243.856 28.5785 244.083 27.9285 244.083 27.1355C244.083 26.3165 243.856 25.673 243.401 25.205C242.959 24.737 242.237 24.503 241.236 24.503C240.235 24.503 239.507 24.737 239.052 25.205C238.61 25.673 238.389 26.3165 238.389 27.1355C238.389 27.5255 238.441 27.883 238.545 28.208C238.662 28.533 238.838 28.819 239.072 29.066C239.306 29.3 239.598 29.4885 239.949 29.6315C240.313 29.7615 240.742 29.8265 241.236 29.8265ZM245.916 41.741C245.916 41.26 245.702 40.9155 245.273 40.7075C244.844 40.4865 244.285 40.3305 243.596 40.2395C242.907 40.1485 242.133 40.0965 241.275 40.0835C240.43 40.0575 239.585 40.0055 238.74 39.9275C238.363 40.1875 238.051 40.48 237.804 40.805C237.57 41.117 237.453 41.4745 237.453 41.8775C237.453 42.1635 237.512 42.4235 237.629 42.6575C237.759 42.8915 237.98 43.093 238.292 43.262C238.604 43.431 239.02 43.561 239.54 43.652C240.073 43.756 240.742 43.808 241.548 43.808C242.419 43.808 243.134 43.756 243.693 43.652C244.252 43.548 244.694 43.405 245.019 43.223C245.357 43.041 245.591 42.82 245.721 42.56C245.851 42.313 245.916 42.04 245.916 41.741ZM251.883 21.4025V23.606C251.883 23.944 251.786 24.2105 251.591 24.4055C251.409 24.6005 251.09 24.75 250.635 24.854L249.173 25.1855C249.251 25.4715 249.309 25.764 249.348 26.063C249.4 26.362 249.426 26.674 249.426 26.999C249.426 28.013 249.212 28.923 248.783 29.729C248.367 30.535 247.788 31.224 247.047 31.796C246.319 32.355 245.455 32.7905 244.454 33.1025C243.453 33.4015 242.38 33.551 241.236 33.551C240.924 33.551 240.619 33.5445 240.32 33.5315C240.021 33.5055 239.728 33.4665 239.442 33.4145C239 33.6875 238.779 33.993 238.779 34.331C238.779 34.669 238.961 34.916 239.325 35.072C239.689 35.215 240.17 35.319 240.768 35.384C241.366 35.436 242.042 35.475 242.796 35.501C243.563 35.514 244.343 35.5595 245.136 35.6375C245.929 35.7025 246.703 35.8195 247.457 35.9885C248.224 36.1575 248.906 36.4305 249.504 36.8075C250.102 37.1845 250.583 37.6915 250.947 38.3285C251.311 38.9525 251.493 39.752 251.493 40.727C251.493 41.637 251.272 42.5275 250.83 43.3985C250.388 44.2695 249.738 45.043 248.88 45.719C248.022 46.395 246.969 46.9345 245.721 47.3375C244.473 47.7535 243.043 47.9615 241.431 47.9615C239.845 47.9615 238.474 47.812 237.317 47.513C236.173 47.214 235.217 46.8175 234.45 46.3235C233.696 45.8425 233.137 45.2835 232.773 44.6465C232.409 44.0095 232.227 43.3465 232.227 42.6575C232.227 41.7605 232.487 41.013 233.007 40.415C233.527 39.817 234.255 39.336 235.191 38.972C234.697 38.673 234.307 38.2895 234.021 37.8215C233.735 37.3535 233.592 36.749 233.592 36.008C233.592 35.709 233.644 35.397 233.748 35.072C233.852 34.734 234.015 34.409 234.236 34.097C234.47 33.772 234.756 33.4665 235.094 33.1805C235.432 32.8945 235.835 32.641 236.303 32.42C235.25 31.861 234.418 31.1265 233.807 30.2165C233.196 29.2935 232.89 28.221 232.89 26.999C232.89 25.985 233.105 25.075 233.534 24.269C233.963 23.45 234.548 22.761 235.289 22.202C236.043 21.63 236.927 21.1945 237.941 20.8955C238.955 20.5835 240.053 20.4275 241.236 20.4275C242.952 20.4275 244.473 20.7525 245.799 21.4025H251.883Z" fill="white"/>
<circle cx="175" cy="38" r="3" fill="white"/>
</svg>
