<svg width="180" height="50" viewBox="0 0 180 50" fill="none" xmlns="http://www.w3.org/2000/svg">
<path d="M80.3898 32.7207C79.9008 32.7207 77.0012 35.928 73.2987 36.2001C70.6897 36.4091 69.2937 34.5235 69.2937 33.2954C77.3285 32.1529 80.6146 28.9963 80.6146 24.9812C80.6146 22.2849 78.3087 19.4546 74.5167 19.4546C66.1969 19.4546 63.9823 27.5039 63.7192 33.1078C63.5265 35.5646 62.1215 35.9364 61.0235 35.8728C59.9255 35.8063 59.1187 34.8283 59.3159 33.0892L60.9435 22.0207C60.9649 21.8314 61.3919 19.5937 59.8021 19.5255C58.1267 19.4529 55.929 20.2331 55.5538 22.6252C55.1847 24.9688 55.0293 26.3062 54.7335 28.2093C54.4974 29.8064 54.2005 31.4255 54.0676 32.9568C53.7662 34.4148 53.253 35.1235 51.7223 35.1286C49.7804 34.9291 49.8243 33.2227 50.0288 31.7822L51.3792 22.0455C51.3989 21.8551 51.8265 19.5943 50.2367 19.5261C48.5607 19.4546 46.3635 20.2573 45.9872 22.6494C45.8948 23.2432 45.8143 23.7699 45.7433 24.2601L45.7427 24.2449C45.3455 27.0318 44.0408 28.2786 42.5529 27.9451C41.0656 27.6127 41.8183 23.4669 41.8239 23.4156C42.336 19.9498 41.1051 18.7306 38.1034 20.0196C36.5226 20.6985 34.8742 22.4517 33.7937 23.7637L34.0489 22.0207C34.0692 21.8303 34.4951 19.5937 32.9069 19.525C31.2309 19.4523 29.0327 20.2348 28.6575 22.6257C28.6439 22.7136 28.6299 22.8015 28.6169 22.8866V22.881C28.6169 22.881 28.4338 23.9035 28.1639 24.8167C28.0507 25.1863 27.9358 25.5496 27.8552 25.7851C27.5285 26.7473 27.1702 27.6983 26.7674 28.6205C26.3634 29.5433 25.9217 30.4385 25.435 31.2886C25.1911 31.7129 24.937 32.1269 24.6649 32.5207C24.3956 32.9134 24.1116 33.292 23.8114 33.6401C23.2148 34.3421 22.5545 34.9353 21.892 35.3466C21.7771 35.4159 21.6616 35.479 21.5483 35.537C18.3214 36.9404 17.7321 33.821 17.6605 33.3551C17.6273 33.1258 17.6138 32.8864 17.6019 32.6419C17.5794 32.2419 17.5777 31.825 17.5901 31.394C17.6014 30.9681 17.6295 30.5258 17.6729 30.0814C17.7591 29.1918 17.9062 28.2786 18.0887 27.3614C18.2509 26.5378 18.4492 25.7124 18.6712 24.886C20.5714 25.0978 22.3353 25.2668 22.9691 25.313C24.4897 25.4217 25.355 24.6347 25.502 23.7733C25.6153 23.1001 25.5353 23.4691 25.8119 21.8787C26.2209 19.5222 25.7409 19.5222 23.8119 19.5222C23.8119 19.5222 22.4446 19.5222 20.5185 19.5222C20.5669 19.4038 20.612 19.2867 20.6605 19.1712C21.3788 17.4005 22.3055 15.8304 23.2339 14.0648C24.4288 11.7973 24.1173 11.2711 22.6576 10.0153C18.0921 6.64752 15.7969 12.657 15.2628 13.6068C14.833 14.5504 14.4719 15.4918 14.0482 16.6208C13.6893 17.5791 13.3615 18.5453 13.0651 19.5227H8.31933C6.86866 19.5227 7.0033 20.8494 7.0033 20.8494C7.0033 22.0922 9.96661 23.2139 11.9739 23.8037C11.8077 24.6178 11.664 25.4347 11.5446 26.2696C11.3886 27.3856 11.2826 28.5231 11.2432 29.6915C11.206 30.8594 11.2342 32.0599 11.4117 33.3134C11.5052 33.9427 11.6314 34.5843 11.8274 35.2407C11.9243 35.5674 12.0376 35.9009 12.1705 36.2361C12.3063 36.5697 12.4651 36.9082 12.6488 37.2434C13.0161 37.9155 13.5057 38.5899 14.1395 39.1803C14.7699 39.7707 15.5535 40.2546 16.3614 40.5386C16.7653 40.6817 17.1721 40.782 17.5704 40.8451C17.9687 40.9081 18.4498 40.9329 18.8233 40.9329C19.5557 40.9262 20.2892 40.8208 20.9957 40.6146C21.7004 40.4062 22.3635 40.0975 22.95 39.7217C23.5376 39.3409 24.0519 38.902 24.5009 38.4389C25.3984 37.5077 26.0384 36.479 26.5629 35.4559C26.6812 35.2266 26.791 34.9967 26.8958 34.7658C26.7144 36.8925 26.8051 38.7747 27.6011 39.7583C29.1166 41.6377 31.2489 41.0287 31.454 39.5375C31.6354 38.2333 32.0399 35.6187 32.3334 33.6818C32.6816 31.6672 33.0917 30.4746 33.8145 28.8256C34.6652 26.8865 37.0798 25.2893 37.0359 27.5372C36.9068 34.1359 41.8414 34.2694 44.692 31.3377C44.2847 34.2272 44.1585 36.9567 45.6875 38.8113C48.6779 42.4383 53.1656 40.6411 55.4873 39.0558C57.5644 41.8912 62.9834 41.3014 65.3344 38.4023C67.0301 40.7386 70.1805 40.9989 72.5269 40.9048C79.2546 40.5628 83.4219 32.7207 80.3898 32.7207ZM75.7623 25.3141C76.2192 27.3834 73.2801 29.1264 69.3427 29.7219C69.3546 28.7963 69.6881 26.3305 72.0131 25.117C73.6401 24.2916 75.5449 24.3305 75.7623 25.3141Z" fill="white"/>
<path d="M94.0819 19.538C96.5816 19.538 98.6694 20.4867 100.021 21.89L97.2773 25.6466C96.2942 24.8212 95.3917 24.4488 94.4503 24.4488C91.5434 24.4488 89.6989 26.7186 89.6989 30.2701C89.6989 33.8165 91.625 36.0852 94.2447 36.0852C95.7179 36.0852 96.9077 35.3832 97.8908 34.6024L100.305 38.4389C98.3421 40.173 95.7607 40.9995 93.5495 40.9995C87.8967 40.9995 83.5154 37.0778 83.5154 30.2701C83.5159 23.4596 88.4702 19.538 94.0819 19.538Z" fill="white"/>
<path d="M112.814 27.3377C112.69 25.5226 111.788 24.3665 109.619 24.3665C107.9 24.3665 106.179 25.0679 104.215 26.2234L102.085 22.2201C104.662 20.6523 107.57 19.5374 110.765 19.5374C115.967 19.5374 118.835 22.5086 118.835 28.7811V40.5019H113.918L113.467 38.3966H113.346C111.625 39.9245 109.7 40.9988 107.406 40.9988C103.721 40.9988 101.388 38.275 101.388 34.8086C101.389 30.5146 104.787 28.1642 112.814 27.3377ZM109.456 36.2942C110.848 36.2942 111.749 35.6311 112.814 34.5601V30.972C108.511 31.5467 107.119 32.7878 107.119 34.355C107.119 35.6739 108.021 36.2942 109.456 36.2942Z" fill="white"/>
<path d="M159.955 20.0326H164.868L165.28 23.6241H165.443C166.916 20.8585 169.128 19.538 171.216 19.538C172.365 19.538 173.062 19.7025 173.633 19.9503L172.65 25.1925C171.911 24.9874 171.301 24.8601 170.441 24.8601C168.923 24.8601 167.04 25.8528 165.975 28.6183V40.5026H159.955V20.0326ZM148.832 19.538C154.608 19.538 157.473 23.7891 157.473 29.3597C157.473 30.4335 157.353 31.4233 157.228 31.9191H145.065C145.6 35.0142 147.646 36.3759 150.351 36.3759C151.864 36.3759 153.256 35.9218 154.732 35.0142L156.736 38.688C154.648 40.1319 151.946 41 149.529 41C143.712 41 139.25 37.0367 139.25 30.2707C139.25 23.6241 143.961 19.538 148.832 19.538ZM152.353 28.1642C152.353 25.8094 151.373 24.1576 148.956 24.1576C147.071 24.1576 145.434 25.4404 145.026 28.1642H152.353ZM130.735 40.5026H136.753V11.5725H130.735V40.5026ZM121.673 40.5026H127.694V11.5725H121.673" fill="white"/>
</svg>
