<?xml version="1.0" encoding="UTF-8"?>
<svg width="80px" height="80px" viewBox="0 0 80 80" version="1.1" xmlns="http://www.w3.org/2000/svg" xmlns:xlink="http://www.w3.org/1999/xlink">
    <!-- Generator: Sketch 51.1 (57501) - http://www.bohemiancoding.com/sketch -->
    <title>Place holder_1 Copy</title>
    <desc>Created with Sketch.</desc>
    <defs>
        <rect id="path-1" x="0" y="0" width="376" height="667"></rect>
    </defs>
    <g id="Place-holder_1-Copy" stroke="none" stroke-width="1" fill="none" fill-rule="evenodd">
        <mask id="mask-2" fill="white">
            <use xlink:href="#path-1"></use>
        </mask>
        <use id="Mask" fill="#FFFFFF" xlink:href="#path-1"></use>
        <path d="M53.9432452,39.9756696 L53.9300024,39.9756696 L53.9300024,48.9869829 C53.713861,49.002249 53.4981926,49.0117904 53.285362,49.0117904 C50.7512584,49.0117904 49.3361711,47.6836366 49.3361711,44.4309957 L49.3361711,39.4523274 C49.3361711,36.8962039 48.1849938,35.3032781 45.9143272,35.3032781 C44.0385798,35.3032781 42.3278943,36.8065154 42.3278943,40.3057998 L42.3278943,48.6797519 L37.7208202,48.6797519 L37.7208202,39.4189327 C37.7208202,37.3923533 37.0180061,35.9683091 35.5485288,35.4850406 L37.9932435,31.2138622 C37.9932435,31.2138622 37.9965542,31.2143393 37.998446,31.2148163 C39.7067667,31.6675526 40.7609878,32.7695768 41.6037972,34.0757855 C42.7554475,32.2829687 44.828418,31.0216043 47.6581197,31.0216043 C52.1006047,31.0216043 53.9432452,34.4073468 53.9432452,38.6890207 L53.9432452,39.9756696 Z M33.9163542,35.4611872 C32.1522246,35.6362707 30.6463295,37.0736727 30.6463295,40.4584611 L30.6463295,48.6797519 L26.087497,48.6797519 L26.087497,39.7939072 L26.087497,36.8217815 L26.087497,31.2253118 C26.2908686,31.212431 26.4975508,31.2047979 26.7056518,31.2047979 C28.6599101,31.2047979 29.9297997,31.9929122 30.4178913,33.7995638 C31.2323232,32.1899407 32.5811966,30.9886867 35.4213033,30.9886867 C35.8734502,30.9886867 36.1931691,31.0020446 36.4291747,31.0301915 C36.4291747,31.0301915 36.5630215,31.0373475 36.7687578,31.054999 L34.2696531,35.4206365 C34.1452654,35.4277925 34.0251343,35.4401963 33.9163542,35.4611872 Z M62.7591635,19 L60.8190939,19 L22.0432418,19 C19.4329921,19 17.3169825,21.1343965 17.3169825,23.7673277 L17.3169825,51.8865944 L12,61 L17.3169825,61 L19.1809061,61 L58.0324313,61 C60.6431539,61 62.7591635,58.8656035 62.7591635,56.2326723 L62.7591635,27.9831664 L68,19 L62.7591635,19 Z" id="Fill-1" fill="#F5F7FA" mask="url(#mask-2)"></path>
    </g>
</svg>