<svg id="Layer_1" data-name="Layer 1" xmlns="http://www.w3.org/2000/svg" width="50" height="50" viewBox="0 0 50 50"><defs><style>.cls-1{ fill:none; stroke:#db3327; stroke-miterlimit:10; stroke-width: 0.5px; }</style></defs><title>logo4</title><path class="cls-1 EOGxXJbP_0" d="M44.17 7.23H9.72a4 4 0 0 0-4 4v23.64l-4.46 7.7h39a4 4 0 0 0 4-4V14.81l4.46-7.58zM19.75 21.05c-1.45.11-2.75 1.34-2.75 4.24v6.91h-3.82V17.48h.55a2.91 2.91 0 0 1 3.13 2.23 4.23 4.23 0 0 1 4.23-2.34h1.12l-2.12 3.68zm17 3.79v7.58h-.56c-2.12 0-3.34-1.11-3.34-3.79v-4.24c0-2.11-1-3.45-2.9-3.45s-3 1.22-3 4.23v7H23v-7.78c0-1.67-.56-2.89-1.9-3.34l2.12-3.57a5.1 5.1 0 0 1 3 2.45 5.9 5.9 0 0 1 5.13-2.56c3.79 0 5.35 2.79 5.35 6.47z"/><style>.EOGxXJbP_0{ stroke-dasharray:280 282; stroke-dashoffset:281; animation: EOGxXJbP_draw_0 4300ms linear 0ms infinite,EOGxXJbP_fade 4300ms linear 0ms infinite; } @keyframes EOGxXJbP_draw{ 100%{ stroke-dashoffset:0; } } @keyframes EOGxXJbP_fade{ 0%{ stroke-opacity:1; } 93.02325581395348%{ stroke-opacity:1; } 100%{ stroke-opacity:0; } } @keyframes EOGxXJbP_draw_0{ 0%{ stroke-dashoffset: 281 } 93.02325581395348%{ stroke-dashoffset: 0; } 100%{ stroke-dashoffset: 0; } }</style></svg>